<svg width="130" height="110" viewBox="0 0 130 110" fill="none" xmlns="http://www.w3.org/2000/svg">
<path d="M117.479 93.16H23.2847C18.3831 93.16 14.4062 89.1832 14.4062 84.2816V9.87844C14.4062 4.9768 18.3831 1 23.2847 1H117.479C122.381 1 126.358 4.9768 126.358 9.87844V84.2816C126.358 89.1832 122.381 93.16 117.479 93.16Z" stroke="#0C1830" stroke-width="1.5" stroke-miterlimit="10"/>
<path d="M106.073 108.782H11.8784C6.97681 108.782 3 104.805 3 99.9036V25.5005C3 20.5989 6.97681 16.6221 11.8784 16.6221H106.073C110.975 16.6221 114.952 20.5989 114.952 25.5005V99.9036C114.952 104.805 110.975 108.782 106.073 108.782Z" fill="white"/>
<path d="M27.5773 92.5248V33.8746C27.5773 29.9182 24.3701 26.7109 20.4137 26.7109C16.4573 26.7109 13.25 29.9182 13.25 33.8746V92.5249C13.25 96.4812 16.4573 99.6885 20.4137 99.6885C24.3701 99.6885 27.5773 96.4812 27.5773 92.5248Z" fill="#ECF2FF"/>
<path d="M27.5773 92.5242V59.1607C27.5773 55.2044 24.3701 51.9971 20.4137 51.9971C16.4573 51.9971 13.25 55.2043 13.25 59.1607V92.5241C13.25 96.4805 16.4573 99.6878 20.4137 99.6878C24.3701 99.6878 27.5773 96.4805 27.5773 92.5242Z" fill="#5178FF"/>
<path d="M53.5851 92.524V33.8746C53.5851 29.9182 50.3778 26.7109 46.4214 26.7109C42.4651 26.7109 39.2578 29.9182 39.2578 33.8745V92.524C39.2578 96.4804 42.4651 99.6876 46.4214 99.6876C50.3778 99.6876 53.5851 96.4804 53.5851 92.524Z" fill="#ECF2FF"/>
<path d="M53.5851 92.5245V67.1685C53.5851 63.2121 50.3778 60.0049 46.4214 60.0049C42.4651 60.0049 39.2578 63.2121 39.2578 67.1685V92.5245C39.2578 96.4808 42.4651 99.6881 46.4214 99.6881C50.3778 99.6881 53.5851 96.4808 53.5851 92.5245Z" fill="#CBD7EA"/>
<path d="M71.8786 26.7109C75.8328 26.7109 79.0384 29.9165 79.0384 33.8707V92.0459C79.0384 95.819 76.1102 98.9446 72.3451 99.1905V99.1905C68.2161 99.4601 64.7188 96.1837 64.7188 92.0459V33.8708C64.7188 29.9165 67.9243 26.7109 71.8786 26.7109V26.7109Z" fill="#ECF2FF"/>
<path d="M71.7745 42.8477C75.7691 42.7897 79.0384 46.0119 79.0384 50.0068V92.5292C79.0384 96.4835 75.8328 99.689 71.8786 99.689V99.689C67.9243 99.689 64.7188 96.4835 64.7188 92.5292V50.0068C64.7188 46.0931 67.8613 42.9046 71.7745 42.8477V42.8477Z" fill="#5178FF"/>
<path d="M97.3511 26.7109C101.307 26.7109 104.515 29.9182 104.515 33.8746V92.1313C104.515 95.9392 101.536 99.0817 97.7331 99.2847V99.2847C93.6325 99.5037 90.1875 96.2377 90.1875 92.1313V33.8745C90.1875 29.9182 93.3948 26.7109 97.3511 26.7109V26.7109Z" fill="#ECF2FF"/>
<path d="M97.2432 47.1896C101.241 47.1294 104.515 50.3538 104.515 54.3524V92.5243C104.515 96.4806 101.307 99.6879 97.3511 99.6879V99.6879C93.3948 99.6879 90.1875 96.4806 90.1875 92.5243V54.3524C90.1875 50.4381 93.3294 47.2485 97.2432 47.1896V47.1896Z" fill="#CBD7EA"/>
</svg>
