<svg width="134" height="70" viewBox="0 0 134 70" fill="none" xmlns="http://www.w3.org/2000/svg">
<path d="M108.488 48.2096H37.6673C25.1861 48.2096 15.0625 38.0915 15.0625 25.6048C15.0625 13.1236 25.1806 3 37.6673 3H108.488C120.969 3 131.093 13.1181 131.093 25.6048C131.093 38.0915 120.975 48.2096 108.488 48.2096Z" fill="#5178FF"/>
<mask id="path-2-inside-1_57_31632" fill="white">
<path fill-rule="evenodd" clip-rule="evenodd" d="M44.6705 56.2467H95.4257C107.907 56.2467 118.031 46.1286 118.031 33.6419C118.031 21.1552 107.907 11.0371 95.4257 11.0371H24.6048C12.1181 11.0371 2 21.1607 2 33.6419C2 46.1286 12.1236 56.2467 24.6048 56.2467H28.3813L33.9278 65.8535C35.0825 67.8535 37.9693 67.8535 39.124 65.8535L44.6705 56.2467Z"/>
</mask>
<path d="M44.6705 56.2467V54.7467H43.8044L43.3714 55.4967L44.6705 56.2467ZM28.3813 56.2467L29.6803 55.4967L29.2473 54.7467H28.3813V56.2467ZM33.9278 65.8535L35.2269 65.1035L35.2269 65.1035L33.9278 65.8535ZM39.124 65.8535L37.8249 65.1035L37.8249 65.1035L39.124 65.8535ZM95.4257 54.7467H44.6705V57.7467H95.4257V54.7467ZM116.531 33.6419C116.531 45.2999 107.079 54.7467 95.4257 54.7467V57.7467C108.735 57.7467 119.531 46.9573 119.531 33.6419H116.531ZM95.4257 12.5371C107.079 12.5371 116.531 21.9838 116.531 33.6419H119.531C119.531 20.3265 108.735 9.53711 95.4257 9.53711V12.5371ZM24.6048 12.5371H95.4257V9.53711H24.6048V12.5371ZM3.5 33.6419C3.5 21.9889 12.9467 12.5371 24.6048 12.5371V9.53711C11.2894 9.53711 0.5 20.3325 0.5 33.6419H3.5ZM24.6048 54.7467C12.9518 54.7467 3.5 45.2999 3.5 33.6419H0.5C0.5 46.9573 11.2954 57.7467 24.6048 57.7467V54.7467ZM28.3813 54.7467H24.6048V57.7467H28.3813V54.7467ZM35.2269 65.1035L29.6803 55.4967L27.0823 56.9967L32.6288 66.6035L35.2269 65.1035ZM37.8249 65.1035C37.2476 66.1035 35.8042 66.1035 35.2269 65.1035L32.6288 66.6035C34.3608 69.6035 38.691 69.6035 40.423 66.6035L37.8249 65.1035ZM43.3714 55.4967L37.8249 65.1035L40.423 66.6035L45.9695 56.9967L43.3714 55.4967Z" fill="#0C1830" mask="url(#path-2-inside-1_57_31632)"/>
<path d="M20.0938 30.6309H97.9485" stroke="white" stroke-width="3" stroke-miterlimit="10" stroke-linecap="round" stroke-linejoin="round"/>
<path d="M30.6328 38.668H86.8924" stroke="white" stroke-width="3" stroke-miterlimit="10" stroke-linecap="round" stroke-linejoin="round"/>
</svg>
