<svg width="40" height="40" viewBox="0 0 40 40" fill="none" xmlns="http://www.w3.org/2000/svg">
<g clip-path="url(#clip0_57_31642)">
<path d="M28.8324 34.0364C27.0371 36.284 23.7201 36.557 21.5816 34.6331L9.12175 23.4238C7.15375 21.6534 6.90675 18.6558 8.55838 16.5871L18.4914 4.14552C20.2868 1.89674 23.6051 1.62372 25.7439 3.54882L38.2037 14.7637C40.1712 16.5346 40.4174 19.5322 38.7654 21.6005L28.8324 34.0364Z" fill="#5178FF"/>
<path d="M23.2151 35.5325C21.4198 37.7801 18.1028 38.0531 15.9643 36.1291L3.50454 24.9199C1.53655 23.1494 1.28955 20.1519 2.94119 18.0832L12.8743 5.64162C14.6696 3.39284 17.9879 3.11983 20.1267 5.04494L32.5864 16.2598C34.5539 18.0307 34.8002 21.0283 33.1481 23.0966L23.2151 35.5325Z" stroke="#0C1830" stroke-width="1.5" stroke-miterlimit="10"/>
</g>
<defs>
<clipPath id="clip0_57_31642">
<rect width="40" height="40" fill="white"/>
</clipPath>
</defs>
</svg>
