<svg width="110" height="80" viewBox="0 0 110 80" fill="none" xmlns="http://www.w3.org/2000/svg">
<path d="M13.9766 11.8184H31.7192C33.5952 11.8184 35.3133 12.8684 36.1689 14.5379L38.778 19.6288C39.6336 21.2983 41.3517 22.3484 43.2277 22.3484H103.617C106.378 22.3484 108.617 24.587 108.617 27.3484V71.578C108.617 74.3395 106.378 76.578 103.617 76.578H13.9766C11.2151 76.578 8.97656 74.3395 8.97656 71.578V16.8184C8.97656 14.0569 11.2151 11.8184 13.9766 11.8184Z" fill="#5178FF"/>
<path d="M7 3H24.7427C26.6186 3 28.3367 4.05007 29.1923 5.71954L31.8014 10.8105C32.6571 12.48 34.3752 13.53 36.2511 13.53H96.6404C99.4018 13.53 101.64 15.7686 101.64 18.53V62.7597C101.64 65.5211 99.4018 67.7597 96.6404 67.7597H7C4.23858 67.7597 2 65.5211 2 62.7597V8C2 5.23858 4.23857 3 7 3Z" stroke="#0C1830" stroke-width="1.5"/>
<path d="M22.1797 39.5605H77.6904" stroke="white" stroke-width="3" stroke-miterlimit="10" stroke-linecap="round" stroke-linejoin="round"/>
<path d="M22.1797 48.8379H62.293" stroke="white" stroke-width="3" stroke-miterlimit="10" stroke-linecap="round" stroke-linejoin="round"/>
</svg>
